<svg width="50" height="50" viewBox="0 0 50 50" fill="none" xmlns="http://www.w3.org/2000/svg">
<path fill-rule="evenodd" clip-rule="evenodd" d="M27.77 1.7476C26.8928 1.43991 26.0282 1.92471 25.0557 2.85373C24.0712 3.79426 22.8734 5.29148 21.301 7.25697L21.2855 7.27638L9.50999 21.9957L9.49396 22.0158C8.30071 23.5073 7.38604 24.6507 6.84567 25.5732C6.30464 26.4969 6.08801 27.2836 6.44016 28.0163C6.79231 28.749 7.54198 29.0713 8.60122 29.2258C9.65918 29.3802 11.1234 29.3802 13.0335 29.3802H13.0592H16.5167C17.5326 29.3802 18.2675 29.3808 18.828 29.4561C19.3808 29.5304 19.7237 29.6731 19.979 29.9283C20.2343 30.1836 20.3769 30.5265 20.4512 31.0793C20.5266 31.6398 20.5271 32.3748 20.5271 33.3906L20.5271 39.792V39.817C20.5271 42.334 20.5271 44.2513 20.7084 45.6008C20.8874 46.9338 21.2597 47.8525 22.1369 48.1602C23.0141 48.4678 23.8787 47.983 24.8512 47.054C25.8358 46.1135 27.0336 44.6162 28.606 42.6506L28.6214 42.6314L40.3969 27.912L40.4129 27.892L40.4129 27.892C41.6062 26.4004 42.5209 25.2571 43.0612 24.3346C43.6023 23.4109 43.8189 22.6241 43.4667 21.8915C43.1146 21.1588 42.3649 20.8364 41.3057 20.6819C40.2477 20.5276 38.7835 20.5276 36.8734 20.5276H36.8478H33.3902C32.3743 20.5276 31.6394 20.527 31.0789 20.4516C30.5261 20.3773 30.1832 20.2347 29.9279 19.9794C29.6726 19.7241 29.53 19.3813 29.4557 18.8285C29.3803 18.268 29.3798 17.533 29.3798 16.5171V10.1157V10.0909V10.0909C29.3798 7.5738 29.3798 5.65643 29.1985 4.30696C29.0195 2.974 28.6472 2.05529 27.77 1.7476Z" fill="url(#paint0_linear_1_2668)"/>
<defs>
<linearGradient id="paint0_linear_1_2668" x1="25.1634" y1="48.2525" x2="48.1129" y2="28.972" gradientUnits="userSpaceOnUse">
<stop stop-color="#FFC657"/>
<stop offset="1" stop-color="#FFD977"/>
</linearGradient>
</defs>
</svg>
